<?xml version="1.0" encoding="utf-8"?>
<!-- Generator: Adobe Illustrator 26.5.0, SVG Export Plug-In . SVG Version: 6.00 Build 0)  -->
<svg version="1.1" id="Layer_1" xmlns="http://www.w3.org/2000/svg" xmlns:xlink="http://www.w3.org/1999/xlink" x="0px" y="0px"
	 viewBox="0 0 48 48" style="enable-background:new 0 0 48 48;" xml:space="preserve">
<style type="text/css">
	.st0{fill:#6A1B9A;}
	.st1{fill:#7B1FA2;}
	.st2{fill:#FFFFFF;}
	.st3{fill:#F2F2F2;}
</style>
<path class="st0" d="M48,24c0,6.8-2.9,13-7.4,17.4l0,0C36.2,45.5,30.4,48,24,48C10.7,48,0,37.3,0,24c0-6.4,2.5-12.2,6.6-16.5
	c0,0,0,0,0,0C11,2.9,17.2,0,24,0C37.3,0,48,10.7,48,24z"/>
<path class="st1" d="M41.2,40.6c-0.2,0.3-0.5,0.5-0.7,0.7l0,0C36.2,45.5,30.4,48,24,48C10.7,48,0,37.3,0,24c0-6.4,2.5-12.2,6.6-16.5
	c0,0,0,0,0,0C6.9,7.2,7.1,7,7.4,6.8L41.2,40.6z"/>
<path class="st2" d="M5.6,27.9c-0.3,0-0.6-0.1-0.8-0.3c-0.2-0.2-0.3-0.5-0.3-0.8c0-0.3,0.1-0.6,0.3-0.8c0.2-0.2,0.5-0.3,0.8-0.3
	c0.3,0,0.6,0.1,0.8,0.3c0.2,0.2,0.3,0.5,0.3,0.8c0,0.3-0.1,0.6-0.3,0.8C6.1,27.8,5.8,27.9,5.6,27.9z"/>
<path class="st2" d="M20.5,27.8h-2l-7-10.9c-0.2-0.3-0.3-0.6-0.4-0.9H11c0.1,0.6,0.1,1.2,0.1,1.9v9.9H9.4V14.1h2.1l6.8,10.7
	c0.3,0.4,0.5,0.8,0.6,0.9h0c-0.1-0.7-0.1-1.3-0.1-2v-9.6h1.6L20.5,27.8L20.5,27.8z"/>
<path class="st2" d="M31.3,27.8H24V14.1h6.9v1.4h-5.3v4.5h4.9v1.4h-4.9v4.7h5.6L31.3,27.8z"/>
<path class="st2" d="M42,15.5h-4v12.2h-1.6V15.5h-3.9v-1.4H42L42,15.5L42,15.5z"/>
<path class="st3" d="M19.6,37c-0.5,0.3-1.1,0.4-1.7,0.4c-0.8,0-1.6-0.3-2.2-0.9c-0.6-0.6-0.8-1.4-0.8-2.2c0-0.9,0.3-1.8,0.9-2.4
	c0.6-0.6,1.4-1,2.3-0.9c0.5,0,1,0.1,1.5,0.3v0.8c-0.5-0.3-1-0.4-1.5-0.4c-0.7,0-1.3,0.3-1.8,0.7c-0.5,0.5-0.7,1.2-0.7,1.9
	c0,0.7,0.2,1.3,0.6,1.8c0.4,0.5,1,0.7,1.7,0.7c0.6,0,1.1-0.1,1.6-0.4L19.6,37z"/>
<path class="st3" d="M22.7,37.4c-0.6,0-1.2-0.2-1.6-0.7c-0.4-0.5-0.6-1.1-0.6-1.7c0-0.6,0.2-1.3,0.6-1.8c0.4-0.4,1.1-0.7,1.7-0.6
	c0.6,0,1.2,0.2,1.6,0.6c0.4,0.5,0.6,1.1,0.6,1.7c0,0.6-0.2,1.3-0.6,1.7C23.9,37.2,23.3,37.4,22.7,37.4z M22.7,33.3
	c-0.4,0-0.8,0.2-1.1,0.5c-0.3,0.4-0.4,0.8-0.4,1.3c0,0.5,0.1,0.9,0.4,1.3c0.3,0.3,0.7,0.5,1.1,0.5c0.4,0,0.8-0.1,1.1-0.4
	c0.3-0.4,0.4-0.8,0.4-1.3c0-0.5-0.1-0.9-0.4-1.3C23.5,33.5,23.1,33.3,22.7,33.3z"/>
<path class="st3" d="M28.4,33.5c-0.2-0.1-0.4-0.2-0.5-0.1c-0.3,0-0.6,0.2-0.8,0.4c-0.2,0.4-0.3,0.8-0.3,1.2v2.3H26v-4.5h0.8v0.9l0,0
	c0.1-0.3,0.2-0.6,0.5-0.8c0.2-0.2,0.4-0.3,0.7-0.3c0.1,0,0.3,0,0.4,0.1V33.5z"/>
<path class="st3" d="M32.8,35.2h-3.2c0,0.4,0.1,0.8,0.4,1.2c0.3,0.3,0.7,0.4,1.1,0.4c0.5,0,1-0.2,1.4-0.5V37c-0.5,0.3-1,0.5-1.6,0.4
	c-0.6,0-1.1-0.2-1.5-0.6c-0.4-0.5-0.6-1.1-0.5-1.7c0-0.6,0.2-1.2,0.6-1.7c0.4-0.4,0.9-0.7,1.5-0.7c0.5,0,1,0.2,1.4,0.6
	c0.3,0.5,0.5,1,0.5,1.6L32.8,35.2z M32,34.6c0-0.3-0.1-0.7-0.3-1c-0.2-0.2-0.5-0.4-0.8-0.3c-0.3,0-0.6,0.1-0.9,0.4
	c-0.2,0.3-0.4,0.6-0.4,1L32,34.6z"/>
</svg>
