<svg xmlns="http://www.w3.org/2000/svg" width="63.729" height="72.279" viewBox="0 0 63.729 72.279">
  <g id="css" transform="translate(-3.656 -2)">
    <path id="Path_9" data-name="Path 9" d="M9.454,67.053,3.656,2H67.385L61.58,67.043l-26.1,7.236Z" transform="translate(0 0)" fill="#1572b6"/>
    <path id="Path_10" data-name="Path 10" d="M16,65.49l21.09-5.847L42.051,4.061H16Z" transform="translate(19.521 3.259)" fill="#33a9dc"/>
    <path id="Path_11" data-name="Path 11" d="M16,23.084H26.558l.728-8.17H16V6.935H36.006l-.191,2.14L33.855,31.063H16Z" transform="translate(19.521 7.804)" fill="#fafafa"/>
    <path id="Path_12" data-name="Path 12" d="M26.739,26.58l-.036.01-8.885-2.4-.568-6.363H9.24l1.118,12.527L26.7,34.892l.039-.01Z" transform="translate(8.83 25.028)" fill="#f7f7f7"/>
    <path id="Path_13" data-name="Path 13" d="M25.866,16.151l-.96,10.684-8.9,2.4v8.3L32.364,33l.121-1.347,1.386-15.506Z" transform="translate(19.533 22.378)" fill="#fafafa"/>
    <path id="Path_14" data-name="Path 14" d="M28.256,6.935v7.979H8.983l-.16-1.794L8.459,9.075l-.191-2.14Z" transform="translate(7.293 7.804)" fill="#f7f7f7"/>
    <path id="Path_15" data-name="Path 15" d="M21.812,13.191V21.17H13.037l-.16-1.794-.361-4.045-.191-2.14Z" transform="translate(13.709 17.697)" fill="#f7f7f7"/>
  </g>
</svg>
