<?xml version="1.0" encoding="utf-8"?>
<!-- Generator: Adobe Illustrator 26.5.0, SVG Export Plug-In . SVG Version: 6.00 Build 0)  -->
<svg version="1.1" id="Layer_1" xmlns="http://www.w3.org/2000/svg" xmlns:xlink="http://www.w3.org/1999/xlink" x="0px" y="0px"
	 viewBox="0 0 48 36" style="enable-background:new 0 0 48 36;" xml:space="preserve">
<style type="text/css">
	.st0{fill:#2395EC;}
</style>
<path class="st0" d="M47.5,14.8c-0.1-0.1-1.3-1-3.9-1c-0.7,0-1.4,0.1-2,0.2c-0.5-3.4-3.2-4.9-3.3-5l-0.7-0.4l-0.5,0.6
	C36.5,10.1,36,11,35.8,12c-0.5,1.9-0.2,3.7,0.8,5.2C35.4,17.9,33.4,18,33,18H1.6c-0.8,0-1.5,0.7-1.5,1.5c0,2.7,0.4,5.6,1.3,8.1
	c1.1,2.8,2.7,4.9,4.8,6.2c2.4,1.4,6.2,2.2,10.6,2.2c2,0,3.9-0.2,5.9-0.5c2.7-0.5,5.3-1.4,7.6-2.7c2-1.1,3.7-2.5,5.2-4.2
	c2.5-2.8,4-5.9,5.1-8.7c0.1,0,0.3,0,0.4,0c2.7,0,4.4-1.1,5.4-2c0.6-0.6,1.1-1.3,1.4-2.1l0.2-0.6L47.5,14.8z"/>
<path class="st0" d="M8,17H5c-0.6,0-1-0.4-1-1v-3c0-0.6,0.4-1,1-1h3c0.6,0,1,0.4,1,1v3C9,16.6,8.6,17,8,17z"/>
<path class="st0" d="M14,17h-3c-0.6,0-1-0.4-1-1v-3c0-0.6,0.4-1,1-1h3c0.6,0,1,0.4,1,1v3C15,16.6,14.6,17,14,17z"/>
<path class="st0" d="M20,17h-3c-0.6,0-1-0.4-1-1v-3c0-0.6,0.4-1,1-1h3c0.6,0,1,0.4,1,1v3C21,16.6,20.6,17,20,17z"/>
<path class="st0" d="M26,17h-3c-0.6,0-1-0.4-1-1v-3c0-0.6,0.4-1,1-1h3c0.6,0,1,0.4,1,1v3C27,16.6,26.6,17,26,17z"/>
<path class="st0" d="M14,11h-3c-0.6,0-1-0.4-1-1V7c0-0.6,0.4-1,1-1h3c0.6,0,1,0.4,1,1v3C15,10.6,14.6,11,14,11z"/>
<path class="st0" d="M20,11h-3c-0.6,0-1-0.4-1-1V7c0-0.6,0.4-1,1-1h3c0.6,0,1,0.4,1,1v3C21,10.6,20.6,11,20,11z"/>
<path class="st0" d="M26,11h-3c-0.6,0-1-0.4-1-1V7c0-0.6,0.4-1,1-1h3c0.6,0,1,0.4,1,1v3C27,10.6,26.6,11,26,11z"/>
<path class="st0" d="M26,5h-3c-0.6,0-1-0.4-1-1V1c0-0.6,0.4-1,1-1h3c0.6,0,1,0.4,1,1v3C27,4.6,26.6,5,26,5z"/>
<path class="st0" d="M32,17h-3c-0.6,0-1-0.4-1-1v-3c0-0.6,0.4-1,1-1h3c0.6,0,1,0.4,1,1v3C33,16.6,32.6,17,32,17z"/>
</svg>
