<svg xmlns="http://www.w3.org/2000/svg" width="63.967" height="72.539" viewBox="0 0 63.967 72.539">
  <g id="html" transform="translate(-52.9 -35.8)">
    <path id="Path_3" data-name="Path 3" d="M116.867,35.8l-5.815,65.27-26.193,7.269L58.74,101.07,52.9,35.8Z" transform="translate(0 0)" fill="#e44d26"/>
    <path id="Path_4" data-name="Path 4" d="M180.5,118.736l21.155-5.865,4.988-55.77H180.5v61.636Z" transform="translate(-95.617 -15.961)" fill="#f16529"/>
    <path id="Path_5" data-name="Path 5" d="M109.148,97.1h11.33v-8H100.4l.2,2.156,1.955,22.058h17.922v-8h-10.6l-.727-8.221Z" transform="translate(-35.594 -39.94)" fill="#f7f7f7"/>
    <path id="Path_6" data-name="Path 6" d="M118.446,201.6H110.4l1.128,12.558,16.393,4.562h.025V210.4h-.025L119,207.992l-.551-6.392Z" transform="translate(-43.087 -124.242)" fill="#f7f7f7"/>
    <path id="Path_7" data-name="Path 7" d="M180.4,161.621h9.851L189.323,172,180.4,174.4v8.322l16.418-4.537.125-1.354,1.88-21.08.2-2.156h-18.6v8.021Z" transform="translate(-95.542 -88.273)" fill="#fafafa"/>
    <path id="Path_8" data-name="Path 8" d="M180.4,97h0l19.325.025.15-1.8.376-4.061.2-2.156H180.4v8Z" transform="translate(-95.542 -39.865)" fill="#fafafa"/>
  </g>
</svg>
