<svg xmlns="http://www.w3.org/2000/svg" width="63.127" height="63.127" viewBox="0 0 63.127 63.127">
  <path id="sass" d="M31.563,0A31.563,31.563,0,1,1,0,31.563,31.565,31.565,0,0,1,31.563,0ZM25.29,42.079a8.067,8.067,0,0,1-.063,4.713l-.171.473c-.063.16-.137.316-.205.463a8.849,8.849,0,0,1-1.46,2.131c-1.836,2-4.4,2.754-5.5,2.117-1.184-.689-.594-3.511,1.536-5.76a21.474,21.474,0,0,1,5.576-3.969V42.24ZM51.359,13.512C49.933,7.9,40.635,6.058,31.837,9.185c-5.232,1.86-10.9,4.782-14.974,8.593-4.848,4.527-5.618,8.472-5.3,10.121,1.123,5.816,9.093,9.619,12.37,12.441v.016c-.965.473-8.038,4.022-9.7,7.694-1.775,3.867.276,6.631,1.618,6.983,4.143,1.147,8.4-.947,10.692-4.337a10.91,10.91,0,0,0,1.063-9.669,12.273,12.273,0,0,1,4.813-.274c5.526.631,6.631,4.1,6.392,5.524a3.793,3.793,0,0,1-1.773,2.483c-.395.239-.513.316-.476.476.039.237.239.237.552.2a4.376,4.376,0,0,0,3-3.869c.118-3.393-3.12-7.178-8.877-7.1a14.226,14.226,0,0,0-4.932.673.953.953,0,0,0-.276-.276c-3.551-3.827-10.14-6.51-9.864-11.6.079-1.854.75-6.744,12.625-12.662,9.745-4.856,17.52-3.511,18.862-.552,1.928,4.219-4.145,12.073-14.285,13.215-3.867.434-5.879-1.063-6.394-1.618-.55-.592-.629-.631-.826-.51-.316.158-.118.671,0,.986A6.074,6.074,0,0,0,29.825,29c1.852.592,6.392.944,11.836-1.184,6.113-2.365,10.887-8.956,9.506-14.48l.192.176Z" fill="#c69"/>
</svg>
