<svg id="ts" xmlns="http://www.w3.org/2000/svg" width="63.03" height="63.03" viewBox="0 0 63.03 63.03">
  <path id="Path_16" data-name="Path 16" d="M0,31.515V0H63.03V63.03H0" fill="#007acc"/>
  <path id="Path_17" data-name="Path 17" d="M87.7,184.969v2.568h8.194v23.321h5.815V187.537H109.9v-2.521a19.638,19.638,0,0,0-.063-2.6c0-.047-5-.063-11.062-.063l-11.03.047v2.584Zm36.825-2.632a7.63,7.63,0,0,1,3.939,2.253,9.915,9.915,0,0,1,1.513,2.017c0,.095-2.726,1.938-4.381,2.962-.063.047-.315-.221-.567-.63a3.6,3.6,0,0,0-2.962-1.765c-1.891-.126-3.151.867-3.151,2.521a2.49,2.49,0,0,0,.284,1.2c.425.867,1.213,1.387,3.656,2.458,4.507,1.938,6.461,3.215,7.642,5.042a9.181,9.181,0,0,1,.741,7.674c-1.008,2.632-3.467,4.412-6.981,5a19.657,19.657,0,0,1-4.806-.047,11.9,11.9,0,0,1-6.413-3.356,11.263,11.263,0,0,1-1.639-2.427l.6-.378,2.364-1.371,1.781-1.04.41.552a8.575,8.575,0,0,0,2.364,2.3c2.048,1.056,4.79.914,6.145-.315a2.361,2.361,0,0,0,.835-1.891,2.432,2.432,0,0,0-.473-1.607c-.5-.693-1.513-1.261-4.349-2.521-3.262-1.387-4.648-2.269-5.941-3.624a8.951,8.951,0,0,1-1.733-3.152,12.068,12.068,0,0,1-.095-4.05,7.677,7.677,0,0,1,6.461-5.988,15.273,15.273,0,0,1,4.79.158l-.032.032Z" transform="translate(-73.881 -153.344)" fill="#fafafa"/>
</svg>
