<svg xmlns="http://www.w3.org/2000/svg" width="44.447" height="43.351" viewBox="0 0 44.447 43.351">
  <path id="github" d="M22.224,0A22.226,22.226,0,0,0,15.2,43.312c1.109.206,1.469-.483,1.469-1.069V38.106C10.486,39.451,9.2,35.484,9.2,35.484A5.886,5.886,0,0,0,6.73,32.232c-2.017-1.38.154-1.35.154-1.35a4.665,4.665,0,0,1,3.406,2.291c1.982,3.4,5.2,2.415,6.467,1.846a4.715,4.715,0,0,1,1.411-2.971c-4.936-.565-10.125-2.471-10.125-10.984A8.6,8.6,0,0,1,10.332,15.1a7.994,7.994,0,0,1,.217-5.882s1.867-.6,6.113,2.278a21.064,21.064,0,0,1,11.129,0C32.034,8.621,33.9,9.217,33.9,9.217a7.986,7.986,0,0,1,.219,5.882A8.578,8.578,0,0,1,36.4,21.064c0,8.536-5.2,10.416-10.147,10.966a5.312,5.312,0,0,1,1.524,4.115v6.1c0,.591.356,1.285,1.483,1.067A22.228,22.228,0,0,0,22.224,0Z" fill="#f0f0f0"/>
</svg>
