<svg xmlns="http://www.w3.org/2000/svg" width="41.741" height="40.712" viewBox="0 0 41.741 40.712">
  <path id="github" d="M20.871,0a20.873,20.873,0,0,0-6.6,40.675c1.042.193,1.379-.454,1.379-1V35.786c-5.806,1.263-7.014-2.463-7.014-2.463A5.528,5.528,0,0,0,6.32,30.269C4.426,28.974,6.465,29,6.465,29a4.381,4.381,0,0,1,3.2,2.151c1.861,3.19,4.882,2.268,6.073,1.734a4.428,4.428,0,0,1,1.325-2.79c-4.635-.53-9.508-2.32-9.508-10.315a8.078,8.078,0,0,1,2.15-5.6,7.507,7.507,0,0,1,.2-5.524S11.66,8.1,15.648,10.8a19.782,19.782,0,0,1,10.451,0c3.985-2.7,5.734-2.139,5.734-2.139a7.5,7.5,0,0,1,.205,5.524,8.056,8.056,0,0,1,2.148,5.6c0,8.016-4.882,9.781-9.529,10.3a4.989,4.989,0,0,1,1.431,3.865v5.727c0,.555.334,1.207,1.393,1A20.875,20.875,0,0,0,20.871,0Z" fill="#fafafa"/>
</svg>
