<?xml version="1.0" encoding="utf-8"?>
<!-- Generator: Adobe Illustrator 26.5.0, SVG Export Plug-In . SVG Version: 6.00 Build 0)  -->
<svg version="1.1" id="Layer_1" xmlns="http://www.w3.org/2000/svg" xmlns:xlink="http://www.w3.org/1999/xlink" x="0px" y="0px"
	 viewBox="0 0 40.7 40.7" style="enable-background:new 0 0 40.7 40.7;" xml:space="preserve">
<style type="text/css">
	.st0{fill:#101010;}
</style>
<path id="linkedin" class="st0" d="M20.4,0C9.1,0,0,9.1,0,20.4s9.1,20.4,20.4,20.4s20.4-9.1,20.4-20.4C40.7,9.1,31.6,0,20.4,0z
	 M15.1,30.7H10V15.8h5.1V30.7z M12.6,13.6c-1.5,0-2.7-1.2-2.7-2.7c0-1.5,1.2-2.7,2.7-2.7c1.5,0,2.7,1.2,2.7,2.7c0,0,0,0,0,0
	C15.3,12.3,14.1,13.6,12.6,13.6C12.6,13.6,12.6,13.6,12.6,13.6z M32.4,30.7h-5.1v-7.1c0-4.6-5.1-4.2-5.1,0v7.1h-5.1V15.8h5.1v2.7
	c2.2-4.1,10-4.2,10,3.9v8.3H32.4z"/>
</svg>
